<svg width="20" height="25" viewBox="0 0 20 25" fill="none" xmlns="http://www.w3.org/2000/svg">
<g clip-path="url(#clip0_4_215)">
<path d="M11.5033 7.78587V13.5375C11.5033 13.6574 11.4648 13.7558 11.3878 13.8328C11.3108 13.9099 11.2123 13.9484 11.0925 13.9484H6.98417C6.86434 13.9484 6.76591 13.9099 6.68888 13.8328C6.61185 13.7558 6.57333 13.6574 6.57333 13.5375V12.7159C6.57333 12.596 6.61185 12.4976 6.68888 12.4206C6.76591 12.3436 6.86434 12.305 6.98417 12.305H9.86V7.78587C9.86 7.66605 9.89852 7.56762 9.97555 7.49059C10.0526 7.41356 10.151 7.37504 10.2708 7.37504H11.0925C11.2123 7.37504 11.3108 7.41356 11.3878 7.49059C11.4648 7.56762 11.5033 7.66605 11.5033 7.78587ZM15.907 15.81C15.907 15.81 16.0632 15.5425 16.3756 15.0076C16.688 14.4726 16.8442 13.5718 16.8442 12.305C16.8442 11.0383 16.5318 9.87 15.907 8.80012C15.2821 7.73024 14.4348 6.8829 13.3649 6.25809C12.295 5.63328 11.1267 5.32087 9.86 5.32087C8.59326 5.32087 7.42496 5.63328 6.35508 6.25809C5.2852 6.8829 4.43786 7.73024 3.81305 8.80012C3.18824 9.87 2.87583 11.0383 2.87583 12.305C2.87583 13.5718 3.18824 14.7401 3.81305 15.81C4.43786 16.8798 5.2852 17.7272 6.35508 18.352C7.42496 18.9768 8.59326 19.2892 9.86 19.2892C11.1267 19.2892 12.295 18.9768 13.3649 18.352C14.4348 17.7272 15.2821 16.8798 15.907 15.81ZM18.3976 7.35578C18.3976 7.35578 18.618 7.73345 19.0588 8.48878C19.4996 9.24412 19.72 10.5162 19.72 12.305C19.72 14.0939 19.2792 15.7436 18.3976 17.2543C17.5161 18.765 16.3199 19.9611 14.8093 20.8427C13.2986 21.7242 11.6488 22.165 9.86 22.165C8.07116 22.165 6.42141 21.7242 4.91074 20.8427C3.40007 19.9611 2.20395 18.765 1.32237 17.2543C0.44079 15.7436 0 14.0939 0 12.305C0 10.5162 0.44079 8.86645 1.32237 7.35578C2.20395 5.84511 3.40007 4.64899 4.91074 3.76741C6.42141 2.88583 8.07116 2.44504 9.86 2.44504C11.6488 2.44504 13.2986 2.88583 14.8093 3.76741C16.3199 4.64899 17.5161 5.84511 18.3976 7.35578Z" fill="#A06824"/>
</g>
<defs>
<clipPath id="clip0_4_215">
<rect width="19.72" height="24" fill="white" transform="matrix(1 0 0 -1 0 24.5293)"/>
</clipPath>
</defs>
</svg>
