<svg width="28" height="28" viewBox="0 0 31 31" xmlns="http://www.w3.org/2000/svg">
<path d="M10.62 2.33301H22.38C26.86 2.33301 30.5 5.97301 30.5 10.453V22.213C30.5 24.3666 29.6445 26.4319 28.1217 27.9547C26.5989 29.4775 24.5336 30.333 22.38 30.333H10.62C6.14 30.333 2.5 26.693 2.5 22.213V10.453C2.5 8.29945 3.3555 6.2341 4.87829 4.7113C6.40109 3.18851 8.46644 2.33301 10.62 2.33301ZM10.34 5.13301C9.00331 5.13301 7.72137 5.66401 6.77618 6.60919C5.831 7.55437 5.3 8.83632 5.3 10.173V22.493C5.3 25.279 7.554 27.533 10.34 27.533H22.66C23.9967 27.533 25.2786 27.002 26.2238 26.0568C27.169 25.1116 27.7 23.8297 27.7 22.493V10.173C27.7 7.38701 25.446 5.13301 22.66 5.13301H10.34ZM23.85 7.23301C24.3141 7.23301 24.7592 7.41738 25.0874 7.74557C25.4156 8.07376 25.6 8.51888 25.6 8.98301C25.6 9.44714 25.4156 9.89226 25.0874 10.2204C24.7592 10.5486 24.3141 10.733 23.85 10.733C23.3859 10.733 22.9408 10.5486 22.6126 10.2204C22.2844 9.89226 22.1 9.44714 22.1 8.98301C22.1 8.51888 22.2844 8.07376 22.6126 7.74557C22.9408 7.41738 23.3859 7.23301 23.85 7.23301ZM16.5 9.33301C18.3565 9.33301 20.137 10.0705 21.4497 11.3833C22.7625 12.696 23.5 14.4765 23.5 16.333C23.5 18.1895 22.7625 19.97 21.4497 21.2828C20.137 22.5955 18.3565 23.333 16.5 23.333C14.6435 23.333 12.863 22.5955 11.5503 21.2828C10.2375 19.97 9.5 18.1895 9.5 16.333C9.5 14.4765 10.2375 12.696 11.5503 11.3833C12.863 10.0705 14.6435 9.33301 16.5 9.33301ZM16.5 12.133C15.3861 12.133 14.3178 12.5755 13.5302 13.3632C12.7425 14.1508 12.3 15.2191 12.3 16.333C12.3 17.4469 12.7425 18.5152 13.5302 19.3029C14.3178 20.0905 15.3861 20.533 16.5 20.533C17.6139 20.533 18.6822 20.0905 19.4698 19.3029C20.2575 18.5152 20.7 17.4469 20.7 16.333C20.7 15.2191 20.2575 14.1508 19.4698 13.3632C18.6822 12.5755 17.6139 12.133 16.5 12.133Z" fill="#5E6E84"/>
</svg>
