<svg width="21" height="22" viewBox="0 0 21 22" fill="none" xmlns="http://www.w3.org/2000/svg">
<path d="M20.7989 8.68976V17.8162C20.7989 18.3219 20.6188 18.7549 20.2586 19.115C19.8985 19.4752 19.4655 19.6553 18.9598 19.6553H2.04025C1.53451 19.6553 1.10156 19.4752 0.741402 19.115C0.381249 18.7549 0.201172 18.3219 0.201172 17.8162V8.68976C0.538337 9.06524 0.92531 9.39857 1.36209 9.68976C4.13604 11.5748 6.04025 12.8967 7.07474 13.6553C7.51152 13.9771 7.86592 14.2281 8.13795 14.4081C8.40998 14.5882 8.77205 14.7721 9.22416 14.9599C9.67627 15.1476 10.0977 15.2415 10.4885 15.2415H10.5H10.5115C10.9023 15.2415 11.3238 15.1476 11.7759 14.9599C12.228 14.7721 12.5901 14.5882 12.8621 14.4081C13.1341 14.2281 13.4885 13.9771 13.9253 13.6553C15.228 12.7127 17.136 11.3909 19.6494 9.68976C20.0862 9.39091 20.4694 9.05757 20.7989 8.68976ZM20.7989 5.31045C20.7989 5.91581 20.6111 6.49435 20.2357 7.04608C19.8602 7.5978 19.3927 8.06907 18.8334 8.45987C15.9521 10.4599 14.159 11.7051 13.454 12.1955C13.3774 12.2491 13.2146 12.366 12.9655 12.5461C12.7165 12.7262 12.5096 12.8717 12.3449 12.9829C12.1801 13.094 11.9809 13.2185 11.7471 13.3564C11.5134 13.4944 11.2931 13.5978 11.0862 13.6668C10.8793 13.7357 10.6878 13.7702 10.5115 13.7702H10.5H10.4885C10.3123 13.7702 10.1207 13.7357 9.91382 13.6668C9.70692 13.5978 9.48661 13.4944 9.2529 13.3564C9.01918 13.2185 8.81995 13.094 8.6552 12.9829C8.49044 12.8717 8.28355 12.7262 8.03451 12.5461C7.78546 12.366 7.62263 12.2491 7.546 12.1955C6.84868 11.7051 5.84485 11.0058 4.53451 10.0978C3.22416 9.18976 2.43872 8.64378 2.17818 8.45987C1.70309 8.13803 1.25481 7.6955 0.833356 7.13229C0.4119 6.56907 0.201172 6.04608 0.201172 5.56332C0.201172 4.96562 0.360176 4.46753 0.678183 4.06907C0.996191 3.6706 1.45021 3.47136 2.04025 3.47136H18.9598C19.4579 3.47136 19.8889 3.65144 20.2529 4.0116C20.6169 4.37175 20.7989 4.8047 20.7989 5.31045Z" fill="#A06824"/>
</svg>
