<svg width="19" height="25" viewBox="0 0 19 25" fill="none" xmlns="http://www.w3.org/2000/svg">
<g clip-path="url(#clip0_4_211)">
<path d="M18.08 16.7216C18.08 16.9527 18.0372 17.2544 17.9516 17.6268C17.866 17.9992 17.7761 18.2924 17.6819 18.5064C17.5022 18.9345 16.98 19.3882 16.1153 19.8676C15.3106 20.3042 14.5145 20.5225 13.7269 20.5225C13.4958 20.5225 13.2711 20.5075 13.0528 20.4775C12.8345 20.4476 12.5884 20.3941 12.3144 20.317C12.0405 20.24 11.8372 20.1779 11.7045 20.1308C11.5718 20.0837 11.3342 19.996 10.9918 19.8676C10.6494 19.7392 10.4397 19.6621 10.3626 19.6364C9.52367 19.3368 8.77462 18.9816 8.11545 18.5706C7.0197 17.8944 5.88756 16.9719 4.71903 15.8034C3.55051 14.6349 2.62811 13.5028 1.95182 12.407C1.54091 11.7478 1.18564 10.9988 0.886023 10.1598C0.860341 10.0828 0.783295 9.87307 0.654886 9.53064C0.526477 9.18822 0.438731 8.95066 0.391648 8.81797C0.344564 8.68528 0.2825 8.48197 0.205455 8.20803C0.128409 7.93409 0.0749053 7.68797 0.0449432 7.46968C0.0149811 7.25138 0 7.02667 0 6.79553C0 6.00795 0.218295 5.21182 0.654886 4.40712C1.13428 3.5425 1.58799 3.0203 2.01602 2.84053C2.23004 2.74636 2.52324 2.65648 2.89562 2.57087C3.26801 2.48526 3.56977 2.44246 3.80091 2.44246C3.92076 2.44246 4.01064 2.4553 4.07057 2.48098C4.22466 2.53235 4.45152 2.85765 4.75114 3.45689C4.8453 3.61954 4.97371 3.85068 5.13636 4.1503C5.29902 4.44992 5.44883 4.72172 5.5858 4.9657C5.72276 5.20968 5.85545 5.43867 5.98386 5.65269C6.00955 5.68693 6.08445 5.79394 6.20858 5.97371C6.33271 6.15348 6.42473 6.30543 6.48466 6.42956C6.54458 6.55369 6.57455 6.67568 6.57455 6.79553C6.57455 6.96674 6.45256 7.18076 6.20858 7.43757C5.9646 7.69439 5.69922 7.92981 5.41244 8.14382C5.12566 8.35784 4.86028 8.5847 4.61631 8.82439C4.37233 9.06409 4.25034 9.26098 4.25034 9.41507C4.25034 9.49212 4.27174 9.58843 4.31455 9.70399C4.35735 9.81956 4.39373 9.90731 4.42369 9.96723C4.45366 10.0272 4.51358 10.1299 4.60347 10.2754C4.69335 10.4209 4.74258 10.5023 4.75114 10.5194C5.40174 11.6922 6.14651 12.6981 6.98545 13.537C7.82439 14.3759 8.83027 15.1207 10.0031 15.7713C10.0202 15.7799 10.1015 15.8291 10.247 15.919C10.3926 16.0089 10.4953 16.0688 10.5552 16.0988C10.6152 16.1287 10.7029 16.1651 10.8185 16.2079C10.934 16.2507 11.0303 16.2721 11.1074 16.2721C11.2615 16.2721 11.4584 16.1501 11.6981 15.9062C11.9378 15.6622 12.1646 15.3968 12.3786 15.11C12.5927 14.8232 12.8281 14.5579 13.0849 14.3139C13.3417 14.0699 13.5557 13.9479 13.7269 13.9479C13.8468 13.9479 13.9688 13.9779 14.0929 14.0378C14.217 14.0977 14.369 14.1898 14.5487 14.3139C14.7285 14.438 14.8355 14.5129 14.8698 14.5386C15.0838 14.667 15.3128 14.7997 15.5568 14.9367C15.8007 15.0736 16.0725 15.2234 16.3722 15.3861C16.6718 15.5487 16.9029 15.6772 17.0656 15.7713C17.6648 16.0709 17.9901 16.2978 18.0415 16.4519C18.0672 16.5118 18.08 16.6017 18.08 16.7216Z" fill="#A06824"/>
</g>
<defs>
<clipPath id="clip0_4_211">
<rect width="18.08" height="24" fill="white" transform="matrix(1 0 0 -1 0 24.5293)"/>
</clipPath>
</defs>
</svg>
