<svg width="40" height="40" viewBox="0 0 40 40" fill="none" xmlns="http://www.w3.org/2000/svg">
<path d="M0 20.0002C0 14.4802 1.96 9.76022 5.88 5.84022C9.8 1.92022 14.5067 -0.0264435 20 0.000221252C25.4933 0.0268898 30.2133 1.97356 34.16 5.84022C38.1067 9.70689 40.0533 14.4269 40 20.0002C39.9467 25.5736 38 30.2936 34.16 34.1602C30.32 38.0269 25.6 39.9736 20 40.0002C14.4 40.0269 9.69333 38.0802 5.88 34.1602C2.06667 30.2402 0.106667 25.5202 0 20.0002ZM8.76 27.9602H17.64V17.4802H14.68C14.5733 16.2002 14.9333 15.2802 15.76 14.7202C16.5867 14.1602 17.76 13.7069 19.28 13.3602L18.44 9.36022C17.4 9.46689 16.5467 9.57355 15.88 9.68022C15.2133 9.78689 14.3733 10.0269 13.36 10.4002C12.3467 10.7736 11.5467 11.2402 10.96 11.8002C10.3733 12.3602 9.85333 13.1869 9.4 14.2802C8.94667 15.3736 8.73333 16.6536 8.76 18.1202V27.9602ZM20.72 27.9602H29.6V17.4802H26.64C26.5333 16.2002 26.88 15.2802 27.68 14.7202C28.48 14.1602 29.6667 13.7069 31.24 13.3602L30.4 9.36022C29.36 9.46689 28.4933 9.57355 27.8 9.68022C27.1067 9.78689 26.28 10.0269 25.32 10.4002C24.36 10.7736 23.56 11.2402 22.92 11.8002C22.28 12.3602 21.76 13.1869 21.36 14.2802C20.96 15.3736 20.7467 16.6536 20.72 18.1202V27.9602Z" fill="#A06824"/>
</svg>
