<svg width="25" height="24" viewBox="0 0 25 24" fill="none" xmlns="http://www.w3.org/2000/svg">
<g clip-path="url(#clip0_4_206)">
<path d="M10.93 3.9793L0.00500488 10.3043H2.305V19.5043C2.32034 19.811 2.43534 20.0755 2.65 20.2978C2.86467 20.5201 3.133 20.639 3.455 20.6543H6.905V14.9043C6.92034 14.567 7.03534 14.291 7.25 14.0763C7.46467 13.8616 7.73301 13.7543 8.05501 13.7543H16.105C16.427 13.7543 16.6953 13.8616 16.91 14.0763C17.1247 14.291 17.2397 14.567 17.255 14.9043V20.6543H20.705C21.0423 20.639 21.3183 20.524 21.533 20.3093C21.7477 20.0946 21.855 19.8263 21.855 19.5043V10.3043H24.155L12.54 3.5883C12.3253 3.46563 12.172 3.4043 12.08 3.4043C11.988 3.4043 11.8385 3.4618 11.6315 3.5768C11.4245 3.6918 11.1907 3.82596 10.93 3.9793ZM8.05501 14.9043V16.0543H16.105V14.9043H8.05501ZM8.05501 17.2043V18.3543H16.105V17.2043H8.05501ZM8.05501 19.5043V20.6543H16.105V19.5043H8.05501Z" fill="#A06824"/>
</g>
<defs>
<clipPath id="clip0_4_206">
<rect width="24.16" height="23" fill="white" transform="matrix(1 0 0 -1 0 23.5293)"/>
</clipPath>
</defs>
</svg>
