<svg width="28" height="28" viewBox="0 0 28 28" xmlns="http://www.w3.org/2000/svg">
<path d="M21.5515 5.72807C20.5142 4.64786 19.2787 3.79136 17.9172 3.20849C16.5556 2.62562 15.0952 2.32803 13.621 2.33307C7.44403 2.33307 2.40969 7.52474 2.40969 13.8947C2.40969 15.9364 2.93009 17.9197 3.90302 19.6697L2.31918 25.6664L8.25858 24.0564C9.89898 24.9781 11.743 25.4681 13.621 25.4681C19.798 25.4681 24.8323 20.2764 24.8323 13.9064C24.8323 10.8147 23.6671 7.90974 21.5515 5.72807ZM13.621 23.5081C11.9467 23.5081 10.3063 23.0414 8.86949 22.1664L8.53009 21.9564L5.0004 22.9131L5.93939 19.3664L5.71312 19.0047C4.78267 17.473 4.28871 15.7022 4.28767 13.8947C4.28767 8.59807 8.47353 4.2814 13.6097 4.2814C16.0986 4.2814 18.4404 5.28474 20.1939 7.10474C21.0623 7.99591 21.7505 9.05604 22.2186 10.2236C22.6866 11.3912 22.9251 12.643 22.9204 13.9064C22.943 19.2031 18.7572 23.5081 13.621 23.5081ZM18.7345 16.3214C18.4517 16.1814 17.0715 15.4814 16.8226 15.3764C16.5624 15.2831 16.3814 15.2364 16.1891 15.5164C15.9968 15.8081 15.465 16.4614 15.3067 16.6481C15.1483 16.8464 14.9786 16.8697 14.6957 16.7181C14.4129 16.5781 13.5079 16.2631 12.4444 15.2831C11.6073 14.5131 11.0529 13.5681 10.8832 13.2764C10.7248 12.9847 10.8606 12.8331 11.0077 12.6814C11.1321 12.5531 11.2905 12.3431 11.4263 12.1797C11.562 12.0164 11.6186 11.8881 11.7091 11.7014C11.7996 11.5031 11.7543 11.3397 11.6865 11.1997C11.6186 11.0597 11.0529 9.6364 10.8267 9.05307C10.6004 8.49307 10.3628 8.56307 10.1931 8.5514H9.65009C9.45777 8.5514 9.16363 8.6214 8.90343 8.91307C8.65454 9.20474 7.9305 9.90474 7.9305 11.3281C7.9305 12.7514 8.93737 14.1281 9.07312 14.3147C9.20888 14.5131 11.0529 17.4297 13.8586 18.6781C14.5261 18.9814 15.0465 19.1564 15.4537 19.2847C16.1212 19.5064 16.7321 19.4714 17.2186 19.4014C17.7616 19.3197 18.8816 18.7014 19.1079 18.0247C19.3454 17.3481 19.3454 16.7764 19.2663 16.6481C19.1871 16.5197 19.0174 16.4614 18.7345 16.3214Z" fill="#5E6E84"/>
</svg>
